<?xml version="1.0" standalone="no"?>
<!DOCTYPE svg PUBLIC "-//W3C//DTD SVG 20010904//EN"
 "http://www.w3.org/TR/2001/REC-SVG-20010904/DTD/svg10.dtd">
<svg version="1.0" xmlns="http://www.w3.org/2000/svg"
 width="459.000000pt" height="98.000000pt" viewBox="0 0 459.000000 98.000000"
 preserveAspectRatio="xMidYMid meet">

<g transform="translate(0.000000,98.000000) scale(0.100000,-0.100000)"
fill="#000000" stroke="none">
<path d="M702 923 l34 -48 275 -5 276 -5 36 -28 c101 -77 101 -217 0 -294
l-36 -28 -298 -3 -299 -3 -90 -124 c-49 -69 -90 -130 -90 -137 0 -7 13 -28 28
-46 l27 -33 88 120 88 121 263 0 c294 0 323 5 394 66 24 20 55 62 73 99 28 58
31 72 27 129 -10 114 -85 216 -186 250 -37 13 -100 16 -345 16 l-299 0 34 -47z"/>
<path d="M763 695 c-18 -24 -33 -47 -33 -50 0 -10 491 -5 511 5 24 13 25 52 1
73 -16 15 -47 17 -233 17 l-214 -1 -32 -44z"/>
<path d="M2555 655 c-14 -13 -25 -36 -25 -50 0 -20 -5 -25 -25 -25 -21 0 -25
-5 -25 -30 0 -25 4 -30 25 -30 25 0 25 -1 25 -90 l0 -90 36 0 35 0 -2 88 -2
87 31 3 c28 3 32 7 32 33 0 27 -3 29 -35 29 -38 0 -40 2 -25 31 7 12 21 19 40
19 25 0 30 4 30 25 0 23 -4 25 -45 25 -35 0 -52 -6 -70 -25z"/>
<path d="M1660 498 l0 -158 35 0 c35 0 35 0 35 45 l0 45 46 0 c25 0 59 8 75
17 39 23 61 80 48 126 -15 56 -50 74 -151 79 l-88 4 0 -158z m158 80 c7 -7 12
-24 12 -40 0 -32 -24 -48 -69 -48 -30 0 -31 1 -31 50 l0 50 38 0 c21 0 43 -5
50 -12z"/>
<path d="M3713 652 c-23 -3 -23 -5 -23 -158 l0 -154 35 0 c35 0 35 0 35 45 l0
45 48 0 c91 0 144 62 121 145 -14 50 -52 72 -129 77 -36 1 -75 2 -87 0z m135
-74 c7 -7 12 -24 12 -38 0 -36 -17 -50 -62 -50 l-38 0 0 50 0 50 38 0 c21 0
43 -5 50 -12z"/>
<path d="M3367 610 c-5 -24 -12 -30 -32 -30 -21 0 -25 -5 -25 -30 0 -25 4 -30
25 -30 24 0 25 -2 25 -64 0 -82 17 -106 83 -113 l47 -6 0 32 c0 26 -4 31 -23
31 -35 0 -47 19 -47 72 l0 48 36 0 c33 0 35 2 32 28 -2 22 -8 28 -35 30 -29 3
-33 7 -33 33 0 24 -4 29 -24 29 -18 0 -25 -7 -29 -30z"/>
<path d="M2014 561 c-39 -24 -58 -69 -51 -123 10 -72 77 -114 155 -97 32 6 82
44 82 61 0 12 -68 10 -75 -2 -16 -26 -95 0 -95 31 0 5 41 9 90 9 90 0 90 0 90
25 0 92 -113 147 -196 96z m119 -53 l22 -23 -59 -3 c-32 -2 -61 -1 -64 2 -10
11 31 46 55 46 12 0 33 -10 46 -22z"/>
<path d="M2286 534 c-3 -26 -6 -80 -6 -120 l0 -74 35 0 35 0 0 63 c0 76 18
107 61 107 27 0 29 3 29 35 0 40 -16 45 -64 20 -27 -14 -31 -14 -38 0 -5 8
-17 15 -27 15 -14 0 -20 -11 -25 -46z"/>
<path d="M2764 561 c-39 -24 -58 -69 -51 -123 14 -102 143 -137 221 -59 l31
31 -42 0 c-23 0 -45 -4 -48 -10 -16 -26 -95 0 -95 31 0 5 41 9 90 9 90 0 90 0
90 25 0 92 -113 147 -196 96z m119 -53 l22 -23 -59 -3 c-69 -4 -79 3 -47 29
31 25 56 24 84 -3z"/>
<path d="M3064 561 c-39 -24 -58 -69 -51 -123 10 -72 77 -114 157 -97 33 7 90
57 90 79 0 15 -67 12 -73 -4 -9 -22 -56 -29 -83 -11 -18 12 -24 24 -24 53 0
21 5 43 12 50 17 17 74 15 92 -3 15 -15 76 -21 76 -7 0 4 -7 18 -16 30 -36 51
-123 68 -180 33z"/>
<path d="M4055 568 c-24 -14 -44 -39 -45 -55 0 -18 55 -16 70 2 23 28 80 13
80 -22 0 -9 -17 -13 -59 -13 -73 0 -104 -21 -104 -70 0 -43 32 -70 85 -70 22
0 49 5 61 11 16 9 22 9 25 0 2 -6 16 -11 32 -11 l27 0 -2 92 c-3 89 -4 93 -34
120 -24 21 -41 28 -74 28 -23 0 -51 -6 -62 -12z m105 -135 c-1 -27 -48 -54
-78 -46 -24 6 -30 38 -9 46 19 8 87 8 87 0z"/>
<path d="M4280 571 c0 -3 23 -57 51 -118 43 -93 50 -115 39 -128 -7 -8 -23
-15 -36 -15 -20 0 -24 -5 -24 -31 0 -31 1 -32 41 -26 23 3 48 12 56 20 16 16
123 272 123 294 0 10 -9 13 -31 11 -28 -3 -33 -9 -55 -67 -14 -36 -27 -67 -29
-69 -3 -3 -19 26 -36 65 -29 67 -32 70 -65 70 -19 0 -34 -3 -34 -6z"/>
<path d="M1456 399 c-96 -78 -113 -82 -411 -87 l-260 -4 -77 -109 -76 -108 26
-35 c15 -20 32 -35 37 -35 6 0 39 42 75 93 l65 94 235 3 c233 4 235 4 291 32
40 19 69 43 97 80 33 44 68 116 60 122 -2 1 -30 -20 -62 -46z"/>
</g>
</svg>
